<?xml version="1.0" standalone="no"?>
<!DOCTYPE svg PUBLIC "-//W3C//DTD SVG 20010904//EN"
 "http://www.w3.org/TR/2001/REC-SVG-20010904/DTD/svg10.dtd">
<svg version="1.0" xmlns="http://www.w3.org/2000/svg"
 width="1106.000000pt" height="1106.000000pt" viewBox="0 0 1106.000000 1106.000000"
 preserveAspectRatio="xMidYMid meet">
<metadata>
Created by potrace 1.14, written by Peter Selinger 2001-2017
</metadata>
<g transform="translate(0.000000,1106.000000) scale(0.100000,-0.100000)"
fill="#000000" stroke="none">
<path d="M5529 10844 c0 -38 -2 -123 -4 -189 -2 -66 -6 -250 -9 -410 -4 -159
-9 -369 -11 -465 -2 -96 -7 -292 -10 -435 -5 -251 -8 -377 -20 -885 -7 -315
-13 -588 -20 -925 -3 -154 -8 -363 -10 -464 -3 -101 -7 -286 -10 -410 -3 -124
-7 -332 -10 -461 -3 -129 -8 -329 -10 -445 -3 -115 -7 -313 -10 -440 -3 -126
-7 -327 -10 -445 -3 -118 -7 -320 -10 -448 l-6 -233 153 3 153 3 -1 125 c-2
120 -10 519 -19 895 -6 240 -14 613 -20 865 -5 246 -14 610 -20 890 -3 113 -7
315 -10 450 -14 653 -24 1090 -40 1770 -2 102 -7 313 -10 470 -3 157 -8 353
-10 435 -2 83 -7 299 -10 480 -4 182 -9 332 -11 334 -2 2 -4 -27 -5 -65z"/>
<path d="M4721 8184 c0 -11 3 -14 6 -6 3 7 2 16 -1 19 -3 4 -6 -2 -5 -13z"/>
<path d="M4720 8150 c0 -5 5 -10 11 -10 5 0 7 5 4 10 -3 6 -8 10 -11 10 -2 0
-4 -4 -4 -10z"/>
<path d="M6329 8044 c-1 -129 -4 -223 -13 -499 -4 -99 -9 -256 -11 -350 -5
-175 -11 -371 -20 -650 -6 -199 -13 -418 -20 -645 -3 -96 -7 -245 -10 -330 -4
-152 -10 -338 -20 -670 -3 -91 -7 -230 -10 -310 -2 -80 -7 -233 -10 -340 -3
-107 -8 -260 -10 -340 -3 -80 -7 -224 -10 -320 -3 -96 -7 -242 -10 -325 -3
-82 -7 -226 -10 -320 -3 -93 -7 -249 -10 -345 -11 -349 -14 -458 -20 -640 -3
-102 -7 -252 -10 -335 -3 -82 -7 -229 -10 -325 -3 -96 -8 -231 -10 -300 l-5
-125 -172 -172 c-95 -95 -173 -171 -175 -170 -1 2 -5 131 -8 288 -3 156 -7
390 -10 519 -3 129 -7 361 -10 515 -19 967 -26 1333 -30 1500 -2 88 -4 195 -4
238 l-1 77 -165 0 c-150 0 -165 -2 -166 -17 -1 -10 -2 -88 -4 -173 -4 -176
-15 -730 -20 -985 -2 -93 -6 -323 -10 -510 -4 -187 -8 -414 -10 -505 -2 -91
-7 -340 -10 -555 -4 -214 -8 -391 -10 -393 -3 -4 -345 337 -346 346 -4 20 -7
109 -13 322 -4 129 -9 289 -11 355 -2 66 -7 206 -10 310 -3 105 -8 253 -10
330 -2 77 -7 221 -10 320 -3 99 -8 248 -10 330 -3 83 -7 233 -10 335 -3 102
-7 250 -10 330 -2 80 -7 226 -10 325 -3 99 -7 245 -10 325 -3 80 -7 226 -10
325 -3 99 -8 245 -10 325 -2 80 -7 231 -10 335 -3 105 -7 249 -10 320 -2 72
-7 227 -11 345 -3 118 -7 265 -9 325 -2 61 -6 205 -10 320 -3 116 -8 264 -10
330 -3 66 -7 212 -10 325 -3 113 -8 261 -10 330 -3 102 -11 351 -19 607 -2 73
-16 59 -17 -18 0 -41 -2 -117 -4 -169 -7 -245 -17 -566 -20 -670 -2 -63 -7
-203 -10 -310 -3 -107 -8 -256 -10 -330 -2 -74 -7 -223 -10 -330 -3 -107 -8
-253 -10 -325 -2 -71 -7 -218 -10 -325 -3 -107 -8 -260 -10 -340 -3 -80 -7
-224 -10 -320 -3 -96 -7 -245 -10 -330 -3 -85 -7 -236 -10 -335 -3 -99 -7
-241 -10 -315 -2 -74 -7 -223 -10 -330 -6 -198 -10 -344 -20 -640 -3 -91 -7
-246 -10 -345 -3 -99 -7 -250 -10 -335 -3 -85 -7 -222 -10 -305 -2 -82 -7
-238 -11 -345 -3 -107 -6 -217 -6 -245 0 -27 -2 -53 -4 -56 -2 -4 -94 83 -205
193 -197 197 -200 201 -204 247 -2 25 -6 116 -10 201 -10 221 -12 249 -19 400
-4 74 -9 180 -11 235 -3 55 -7 147 -10 205 -3 58 -7 152 -10 210 -3 58 -7 148
-10 200 -3 52 -7 151 -10 220 -3 69 -8 161 -10 205 -2 44 -7 136 -10 205 -3
69 -8 159 -10 200 -2 41 -6 138 -10 215 -3 77 -8 169 -10 205 -2 36 -7 133
-10 215 -4 83 -8 179 -10 215 -2 36 -7 135 -11 220 -3 85 -8 173 -10 195 -1
22 -3 64 -3 94 -1 30 -3 52 -7 49 -6 -6 -10 -75 -19 -283 -3 -77 -7 -178 -10
-225 -2 -47 -7 -143 -10 -215 -3 -71 -8 -161 -10 -200 -4 -67 -11 -217 -20
-425 -3 -52 -7 -144 -10 -205 -6 -117 -10 -200 -20 -415 -3 -74 -8 -169 -10
-210 -2 -41 -7 -133 -10 -205 -3 -71 -8 -161 -10 -200 -2 -38 -6 -140 -10
-225 -4 -85 -8 -181 -10 -213 -2 -31 -6 -124 -10 -205 -4 -81 -8 -148 -10
-150 -1 -1 -271 266 -599 593 -406 406 -594 600 -589 609 5 7 54 71 110 142
57 71 272 345 479 609 207 264 383 489 392 500 95 115 -21 4 -606 -580 l-682
-680 1638 -1637 1637 -1638 1632 1632 c898 898 1633 1636 1633 1640 0 10
-1330 1341 -1335 1336 -1 -1 86 -115 195 -253 108 -137 343 -437 523 -665
l326 -415 -597 -597 c-328 -329 -597 -596 -599 -594 -4 3 -7 62 -28 521 -5 99
-9 188 -20 400 -3 61 -7 157 -10 215 -7 160 -15 316 -20 405 -2 44 -7 143 -10
220 -4 77 -8 176 -10 220 -3 44 -7 136 -10 205 -3 69 -7 159 -10 200 -2 41 -7
138 -11 215 -3 77 -7 167 -9 200 -1 33 -6 134 -10 225 -4 91 -9 183 -10 205
-2 22 -4 69 -4 104 -1 35 -3 62 -5 60 -5 -5 -11 -102 -21 -309 -7 -162 -14
-299 -20 -415 -3 -55 -7 -149 -10 -210 -3 -60 -7 -159 -10 -220 -3 -60 -7
-159 -10 -220 -3 -60 -7 -146 -10 -190 -2 -44 -7 -138 -10 -210 -3 -71 -8
-164 -10 -205 -3 -41 -7 -138 -10 -215 -3 -77 -7 -174 -10 -215 -2 -41 -7
-131 -10 -200 -3 -69 -8 -161 -10 -205 -2 -44 -7 -143 -10 -220 -3 -77 -7
-174 -10 -215 -5 -73 -12 -235 -20 -414 l-4 -89 -202 -203 c-112 -112 -204
-202 -205 -201 -1 1 -5 92 -8 202 -13 406 -16 494 -21 670 -3 99 -7 245 -10
325 -2 80 -7 226 -10 325 -3 99 -7 252 -10 340 -5 152 -8 250 -20 660 -3 99
-7 243 -10 320 -3 77 -7 223 -10 325 -5 183 -10 357 -20 660 -6 188 -13 414
-20 655 -3 99 -8 245 -10 325 -3 80 -7 228 -10 330 -3 102 -7 248 -10 325 -2
77 -7 228 -10 335 -3 107 -8 249 -10 315 -2 66 -7 224 -10 350 -10 334 -11
365 -19 372 -3 3 -6 -47 -7 -113z"/>
<path d="M4720 8120 c0 -5 5 -10 10 -10 6 0 10 5 10 10 0 6 -4 10 -10 10 -5 0
-10 -4 -10 -10z"/>
<path d="M3921 5484 c0 -11 3 -14 6 -6 3 7 2 16 -1 19 -3 4 -6 -2 -5 -13z"/>
</g>
</svg>
